<!DOCTYPE svg PUBLIC "-//W3C//DTD SVG 1.1//EN" "http://www.w3.org/Graphics/SVG/1.1/DTD/svg11.dtd">
<!-- Uploaded to: SVG Repo, www.svgrepo.com, Transformed by: SVG Repo Mixer Tools -->
<svg width="201px" height="201px" viewBox="-15.84 -15.84 79.68 79.68" xmlns="http://www.w3.org/2000/svg" fill="#fff" stroke="#fff" stroke-width="2.16">
<g id="SVGRepo_bgCarrier" stroke-width="0">
<path transform="translate(-15.84, -15.84), scale(2.49)" d="M16,27.243829481303692C19.85443847133418,27.25978151238613,24.036222762366098,27.327325050675753,26.63873135748857,24.48410514906591C29.408312423144274,21.458359904745777,30.232558426292353,16.946038419296997,29.009948806003806,13.03056408287971C27.8794078862243,9.4099448073488,24.35790136568698,7.370525539840759,20.8468736210121,5.935363219486337C17.659275437486514,4.632405470899892,14.297771661730609,4.592552537808643,11.030850902536692,5.681455576359324C6.970548600054911,7.034801996582152,2.1728759120829064,8.463168351518018,0.9540762706496473,12.565866092603871C-0.31063118596098205,16.823097756431036,2.2921468240696625,21.295270548345655,5.471121282094696,24.39650059229976C8.209147042945858,27.067565699235907,12.174934867362817,27.22799901511725,16,27.243829481303692" fill="#3b25a7" strokewidth="0"/>
</g>
<g id="SVGRepo_tracerCarrier" stroke-linecap="round" stroke-linejoin="round"/>
<g id="SVGRepo_iconCarrier">
<defs>
<style>.a{fill:none;stroke:#fff;stroke-linecap:round;stroke-linejoin:round;}</style>
</defs>
<path class="a" d="M24,25.28a3.26,3.26,0,0,0-1.64,6.07V36h3.32V31.35a3.28,3.28,0,0,0,1.61-2.8v0A3.27,3.27,0,0,0,24,25.28Z"/>
<rect class="a" x="7.38" y="17.77" width="33.23" height="25.73" rx="4.32"/>
<path class="a" d="M13.35,17.77V15.16a10.66,10.66,0,0,1,21.32,0v2.61"/>
</g>
</svg>